<svg width="60" height="59" viewBox="0 0 60 59" fill="none" xmlns="http://www.w3.org/2000/svg">
<g clip-path="url(#clip0_92_227)">
<path d="M50.0391 0H9.96094C4.45966 0 0 4.45966 0 9.96094V48.5391C0 54.0403 4.45966 58.5 9.96094 58.5H50.0391C55.5403 58.5 60 54.0403 60 48.5391V9.96094C60 4.45966 55.5403 0 50.0391 0Z" fill="#330000"/>
<path d="M29.0752 35.1071H19.7775L17.8857 40.9836C17.8599 41.0908 17.7976 41.1856 17.7094 41.2518C17.6212 41.3179 17.5127 41.3512 17.4026 41.3459H12.6933C12.4249 41.3459 12.331 41.1983 12.4116 40.903L20.4617 17.7191C20.5421 17.4777 20.6226 17.2027 20.7031 16.8941C20.8086 16.3569 20.8625 15.8112 20.8641 15.264C20.8586 15.2257 20.8621 15.1867 20.8743 15.15C20.8866 15.1133 20.9072 15.0799 20.9345 15.0526C20.9618 15.0252 20.9951 15.0046 21.0318 14.9924C21.0685 14.9801 21.1075 14.9766 21.1458 14.982H27.5457C27.7332 14.982 27.8405 15.0492 27.8677 15.1836L37.0043 40.9433C37.0848 41.212 37.0043 41.3462 36.7629 41.3459H31.5303C31.4404 41.3558 31.3501 41.3326 31.2761 41.2808C31.202 41.2289 31.1494 41.152 31.1279 41.0642L29.0752 35.1071ZM21.2264 30.0357H27.586L27.4953 29.7364L27.3497 29.2625L27.2459 28.9297L27.0802 28.4056L26.7279 27.3024L26.4181 26.3244L25.6135 23.7767C25.4132 23.1434 25.221 22.5076 25.0369 21.8694L24.8897 21.3514L24.7177 20.739L24.4552 19.7898L24.406 19.6109H24.3659C24.1644 20.577 23.9192 21.5335 23.6309 22.4773L23.0337 24.3983L22.7051 25.4595L22.3735 26.5339C22.3136 26.728 22.2539 26.9198 22.1942 27.1095L22.0161 27.6716L21.8389 28.2205L21.6626 28.7558L21.4873 29.2777C21.4292 29.4496 21.3711 29.6191 21.3132 29.7863L21.2264 30.0357ZM42.4376 19.2486C42.0271 19.265 41.6178 19.1946 41.2363 19.0421C40.8548 18.8895 40.5099 18.6581 40.2239 18.3631C39.939 18.0552 39.7176 17.694 39.5725 17.3003C39.4274 16.9065 39.3615 16.4881 39.3786 16.0688C39.364 15.6538 39.4371 15.2403 39.5931 14.8554C39.7492 14.4706 39.9847 14.1229 40.2842 13.8352C40.8619 13.2806 41.6314 12.9702 42.4322 12.9688L42.518 12.9697C43.4841 12.9697 44.2422 13.2581 44.7924 13.835C45.07 14.1348 45.2858 14.4865 45.4273 14.8698C45.5689 15.2531 45.6335 15.6605 45.6174 16.0688C45.6344 16.4898 45.5666 16.9098 45.4179 17.304C45.2693 17.6982 45.0428 18.0585 44.7521 18.3634C44.4586 18.6525 44.1103 18.8801 43.7276 19.0327C43.3449 19.1852 42.9355 19.2597 42.5236 19.2516L42.4376 19.2486ZM39.6603 40.9433V21.7039C39.6601 21.4623 39.7675 21.3416 39.9823 21.3416H44.9332C45.1478 21.3416 45.2551 21.4623 45.2553 21.7039V40.9433C45.2553 41.212 45.1479 41.3462 44.9332 41.3459H40.0226C39.7939 41.3459 39.6735 41.2255 39.6614 40.9845L39.6603 40.9433Z" fill="#FF9A00"/>
</g>
<defs>
<clipPath id="clip0_92_227">
<rect width="60" height="58.5938" fill="white"/>
</clipPath>
</defs>
</svg>
