<svg width="60" height="60" viewBox="0 0 60 60" fill="none" xmlns="http://www.w3.org/2000/svg">
<path d="M48.75 3.75H11.25C7.10786 3.75 3.75 7.10786 3.75 11.25V48.75C3.75 52.8921 7.10786 56.25 11.25 56.25H48.75C52.8921 56.25 56.25 52.8921 56.25 48.75V11.25C56.25 7.10786 52.8921 3.75 48.75 3.75Z" fill="#37474F"/>
<path d="M44.52 27.5926C43.8973 27.2357 43.2231 26.9777 42.5213 26.8276C41.7572 26.6391 40.9738 26.5403 40.1869 26.5332C39.7648 26.519 39.3431 26.5728 38.9381 26.6926C38.6731 26.7547 38.4417 26.9157 38.2913 27.1426C38.1871 27.3285 38.1299 27.5371 38.1244 27.7501C38.1328 27.9623 38.2054 28.1669 38.3325 28.337C38.5274 28.5832 38.7681 28.7895 39.0413 28.9445C39.5238 29.2157 40.0175 29.4638 40.5225 29.6888C41.655 30.1027 42.7319 30.655 43.7288 31.3332C44.4249 31.81 44.9908 32.4533 45.375 33.2045C45.7099 33.9315 45.8741 34.7255 45.855 35.5257C45.8747 36.5822 45.5924 37.6223 45.0413 38.5238C44.479 39.4083 43.6673 40.1064 42.7088 40.5301C41.5192 41.0413 40.2324 41.287 38.9381 41.2501C37.9859 41.2557 37.036 41.1576 36.105 40.9576C35.3654 40.8198 34.6494 40.5767 33.9788 40.2357C33.9038 40.1937 33.8424 40.1312 33.8019 40.0554C33.7614 39.9797 33.7434 39.8939 33.75 39.8082V35.8857C33.7484 35.848 33.7549 35.8104 33.7692 35.7755C33.7834 35.7405 33.805 35.7091 33.8325 35.6832C33.8963 35.6382 33.9581 35.6607 34.02 35.7057C34.815 36.2133 35.6878 36.587 36.6038 36.812C37.4036 37.0374 38.2309 37.151 39.0619 37.1495C39.6557 37.1826 40.2489 37.074 40.7925 36.8326C40.9648 36.7423 41.1086 36.606 41.2079 36.4388C41.3072 36.2716 41.3581 36.0802 41.355 35.8857C41.3423 35.7083 41.2909 35.5357 41.2044 35.3802C41.1179 35.2248 40.9985 35.0901 40.8544 34.9857C40.2241 34.543 39.5374 34.1867 38.8125 33.9263C37.7567 33.5228 36.7612 32.9764 35.8538 32.3026C35.1902 31.7904 34.6495 31.1363 34.2713 30.3882C33.9372 29.6689 33.773 28.8824 33.7913 28.0895C33.7921 27.1347 34.0361 26.1958 34.5 25.3613C35.0113 24.4717 35.772 23.7514 36.6881 23.2895C37.8296 22.7168 39.0985 22.4451 40.3744 22.5001C41.2396 22.5013 42.1034 22.569 42.9581 22.7026C43.5763 22.7942 44.1793 22.9689 44.7506 23.222C44.7967 23.2404 44.8387 23.2678 44.8741 23.3026C44.9095 23.3373 44.9376 23.3788 44.9569 23.4245C44.9806 23.5127 44.9951 23.6032 45 23.6945V27.3695C45.0009 27.4125 44.9919 27.4552 44.9737 27.4942C44.9555 27.5332 44.9286 27.5675 44.895 27.5945C44.7743 27.6406 44.6407 27.6406 44.52 27.5945M23.2125 18.7501H18.7313V18.6938H14.9813V41.1938H18.7313V33.7501H23.2125C25.0127 33.7501 26.7391 33.035 28.012 31.7621C29.2849 30.4892 30 28.7628 30 26.9626V25.5376C30 23.7374 29.2849 22.011 28.012 20.7381C26.7391 19.4652 25.0127 18.7501 23.2125 18.7501ZM26.25 26.9626C26.247 27.7673 25.9261 28.5382 25.3571 29.1072C24.7881 29.6762 24.0172 29.9971 23.2125 30.0001H18.7313V22.5001H23.2125C24.0172 22.5031 24.7881 22.824 25.3571 23.393C25.9261 23.962 26.247 24.7329 26.25 25.5376V26.9626Z" fill="#64B5F6"/>
</svg>
